# xmcd
#
# Track frame offsets: 
#        150
#        25365
#        48732
#        69002
#        91047
#        114762
#        141042
#        160712
#        191170
#        212135
#        234925
#
# Disc length: 3399 seconds
#
# Revision: 0
# Processed by: cddbd v1.5.2PL0 Copyright (c) Steve Scherf et al.
# Submitted via: ExactAudioCopy v1.0b3
#
DISCID=880d450b
DTITLE=Vu Khanh, Y Lan, Thanh Ha - Que Huong La Nguoi Do
DYEAR=1994
DGENRE=
TTITLE0=Y Lan - Tren ngon tinh sau
TTITLE1=Vu Khanh - K khuc cua Le
TTITLE2=Thanh Ha - Trong tay Thanh nu co doi ta
TTITLE3=Y Lan - Que huong la nguoi do
TTITLE4=Vu Khanh - Khuc thuy du
TTITLE5=Vu Khanh, Y Lan - Khuc thang hai
TTITLE6=Thanh Ha - On em
TTITLE7=Vu Khanh - Khi cuoc tinh da chet
TTITLE8=Y Lan - Thuong Me da lung doi
TTITLE9=Thanh Ha - Em ngu trong mot mua dong
TTITLE10=Vu Khanh - Dem nho trang Sai Gon
EXTD=
EXTT0=
EXTT1=
EXTT2=
EXTT3=
EXTT4=
EXTT5=
EXTT6=
EXTT7=
EXTT8=
EXTT9=
EXTT10=
PLAYORDER=
